<svg width="64" height="64" viewBox="0 0 64 64" fill="none" xmlns="http://www.w3.org/2000/svg">
<g clip-path="url(#clip0_13_359)">
<path d="M33.4788 0.4125C33.0195 0.149361 32.4994 0.0109196 31.97 0.0109196C31.4407 0.0109196 30.9206 0.149361 30.4613 0.4125L5.55129 14.88C4.60379 15.416 4.07129 16.4275 4.07129 17.5V46.494C4.07129 47.5655 4.66279 48.5775 5.55029 49.114L30.4603 63.581C30.9196 63.8442 31.4399 63.9827 31.9693 63.9827C32.4987 63.9827 33.0189 63.8442 33.4783 63.581L58.3883 49.1135C59.3353 48.5775 59.8673 47.5655 59.8673 46.4935V17.5C59.8673 16.428 59.2758 15.4165 58.3883 14.88L33.4788 0.4125Z" fill="url(#paint0_linear_13_359)"/>
<path d="M58.4485 14.88L33.4205 0.4125C33.1747 0.287591 32.9169 0.187915 32.651 0.115L4.60498 48.399C4.83695 48.6842 5.11741 48.9262 5.43348 49.114L30.462 63.581C31.172 63.9975 32 64.117 32.7695 63.8785L59.0995 15.416C58.9266 15.1896 58.7038 15.0062 58.4485 14.88Z" fill="url(#paint1_linear_13_359)"/>
<path d="M58.4488 49.1125C59.1588 48.696 59.6913 47.9815 59.9278 47.2075L32.5328 0.0539997C31.8228 -0.0650003 31.0533 -0.00550032 30.4028 0.4115L5.55176 14.8195L32.3548 63.997C32.7098 63.937 33.1248 63.818 33.4798 63.6395L58.4488 49.1125Z" fill="url(#paint2_linear_13_359)"/>
</g>
<defs>
<linearGradient id="paint0_linear_13_359" x1="42.1142" y1="11.1863" x2="19.3649" y2="57.3064" gradientUnits="userSpaceOnUse">
<stop stop-color="#3F873F"/>
<stop offset="0.33" stop-color="#3F8B3D"/>
<stop offset="0.637" stop-color="#3E9638"/>
<stop offset="0.934" stop-color="#3DA92E"/>
<stop offset="1" stop-color="#3DAE2B"/>
</linearGradient>
<linearGradient id="paint1_linear_13_359" x1="28.1853" y1="35.3829" x2="91.6581" y2="-11.2259" gradientUnits="userSpaceOnUse">
<stop offset="0.138" stop-color="#3F873F"/>
<stop offset="0.402" stop-color="#52A044"/>
<stop offset="0.713" stop-color="#64B749"/>
<stop offset="0.908" stop-color="#6ABF4B"/>
</linearGradient>
<linearGradient id="paint2_linear_13_359" x1="3.1596" y1="31.9872" x2="60.7998" y2="31.9872" gradientUnits="userSpaceOnUse">
<stop offset="0.092" stop-color="#6ABF4B"/>
<stop offset="0.287" stop-color="#64B749"/>
<stop offset="0.598" stop-color="#52A044"/>
<stop offset="0.862" stop-color="#3F873F"/>
</linearGradient>
<clipPath id="clip0_13_359">
<rect width="64" height="64" fill="white"/>
</clipPath>
</defs>
</svg>
