<svg width="64" height="64" viewBox="0 0 64 64" fill="none" xmlns="http://www.w3.org/2000/svg">
<g clip-path="url(#clip0_13_388)">
<path d="M19.331 24.335L31.461 17.315C31.6132 17.2386 31.7811 17.1988 31.9515 17.1988C32.1218 17.1988 32.2897 17.2386 32.442 17.315L44.6235 24.335C44.9335 24.49 45.14 24.851 45.14 25.1605V39.2005C45.14 39.562 44.9335 39.8715 44.6235 40.078L32.4935 47.098C32.3412 47.1744 32.1733 47.2142 32.003 47.2142C31.8326 47.2142 31.6647 47.1744 31.5125 47.098L19.331 40.078C19.021 39.923 18.8145 39.562 18.8145 39.2005V25.1605C18.8145 24.8505 19.021 24.4895 19.331 24.335Z" fill="#8080F2"/>
<path d="M63.5676 30.735L49.0626 5.4425C48.5466 4.5135 47.5661 3.8425 46.4821 3.8425H17.4726C16.4406 3.8425 15.4596 4.5135 14.8921 5.4425L0.387056 30.684C0.133194 31.142 0 31.6571 0 32.1807C0 32.7044 0.133194 33.2195 0.387056 33.6775L14.8921 58.764C15.4081 59.693 16.3886 60.1575 17.4726 60.1575H46.5336C47.5661 60.1575 48.5466 59.693 49.1146 58.8155L63.6196 33.729C64.1356 32.697 64.1356 31.6125 63.5676 30.735ZM51.5401 42.865C51.5401 43.2265 51.3336 43.5875 50.9721 43.7425L32.4931 54.4275C32.3399 54.5286 32.1603 54.5824 31.9768 54.5824C31.7933 54.5824 31.6138 54.5286 31.4606 54.4275L12.9306 43.7945C12.6206 43.588 12.3626 43.2785 12.3626 42.917V21.4955C12.3626 21.1345 12.5691 20.773 12.9306 20.6185L31.4611 9.9335C31.6143 9.83243 31.7938 9.77855 31.9773 9.77855C32.1608 9.77855 32.3404 9.83243 32.4936 9.9335L51.0246 20.6185C51.3341 20.8245 51.5921 21.1345 51.5921 21.4955V42.8655L51.5401 42.865Z" fill="#4B32C3"/>
</g>
<defs>
<clipPath id="clip0_13_388">
<rect width="64" height="64" fill="white"/>
</clipPath>
</defs>
</svg>
