<svg width="64" height="64" viewBox="0 0 64 64" fill="none" xmlns="http://www.w3.org/2000/svg">
<g clip-path="url(#clip0_13_365)">
<path d="M62.3685 29.189L34.8105 1.632C33.2245 0.0449996 30.6505 0.0449996 29.062 1.632L23.34 7.355L30.599 14.614C32.2865 14.0445 34.2205 14.4265 35.565 15.771C36.9165 17.124 37.2955 19.0745 36.712 20.7675L43.708 27.764C45.4005 27.1805 47.354 27.5575 48.705 28.9115C50.595 30.8 50.595 33.8615 48.705 35.751C48.2559 36.2004 47.7226 36.5568 47.1356 36.8C46.5487 37.0432 45.9196 37.1684 45.2843 37.1684C44.6489 37.1684 44.0198 37.0432 43.4329 36.8C42.8459 36.5568 42.3126 36.2004 41.8635 35.751C41.1887 35.0758 40.7287 34.216 40.5414 33.28C40.3541 32.3439 40.4479 31.3734 40.811 30.4905L34.287 23.9665L34.286 41.137C34.7593 41.3701 35.1915 41.6788 35.5655 42.051C37.4545 43.9395 37.4545 47 35.5655 48.8925C33.676 50.781 30.6135 50.781 28.726 48.8925C26.837 47.0005 26.837 43.94 28.726 42.051C29.1786 41.5977 29.7169 41.2391 30.3095 40.996V23.6665C29.7164 23.4241 29.1779 23.0652 28.726 22.611C27.295 21.181 26.9505 19.081 27.6845 17.323L20.528 10.1665L1.63201 29.0615C0.869665 29.8241 0.441406 30.8582 0.441406 31.9365C0.441406 33.0148 0.869665 34.0489 1.63201 34.8115L29.1905 62.3685C30.7775 63.9555 33.3505 63.9555 34.94 62.3685L62.369 34.9395C63.1312 34.1767 63.5593 33.1425 63.5592 32.0641C63.5591 30.9858 63.1308 29.9517 62.3685 29.189Z" fill="#F34F29"/>
</g>
<defs>
<clipPath id="clip0_13_365">
<rect width="64" height="64" fill="white"/>
</clipPath>
</defs>
</svg>
