<svg width="65" height="64" viewBox="0 0 65 64" fill="none" xmlns="http://www.w3.org/2000/svg">
<g clip-path="url(#clip0_13_400)">
<path d="M23.3701 64.5C29.3201 64.5 34.1201 59.7 34.1201 53.75V43H23.3701C17.4201 43 12.6201 47.8 12.6201 53.75C12.6201 59.7 17.4201 64.5 23.3701 64.5Z" fill="#0ACF83"/>
<path d="M12.6201 32.25C12.6201 26.3 17.4201 21.5 23.3701 21.5H34.1201V43H23.3701C17.4201 43 12.6201 38.2 12.6201 32.25Z" fill="#A259FF"/>
<path d="M12.6201 10.75C12.6201 4.8 17.4201 0 23.3701 0H34.1201V21.5H23.3701C17.4201 21.5 12.6201 16.7 12.6201 10.75Z" fill="#F24E1E"/>
<path d="M34.1201 0H44.8701C50.8201 0 55.6201 4.8 55.6201 10.75C55.6201 16.7 50.8201 21.5 44.8701 21.5H34.1201V0Z" fill="#FF7262"/>
<path d="M55.6201 32.25C55.6201 38.2 50.8201 43 44.8701 43C38.9201 43 34.1201 38.2 34.1201 32.25C34.1201 26.3 38.9201 21.5 44.8701 21.5C50.8201 21.5 55.6201 26.3 55.6201 32.25Z" fill="#1ABCFE"/>
</g>
<defs>
<clipPath id="clip0_13_400">
<rect width="64" height="64" fill="white" transform="translate(0.620117)"/>
</clipPath>
</defs>
</svg>
