<svg width="64" height="64" viewBox="0 0 64 64" fill="none" xmlns="http://www.w3.org/2000/svg">
<path d="M57.376 4H6.624C5.1748 4 4 5.1748 4 6.624V57.376C4 58.8252 5.1748 60 6.624 60H57.376C58.8252 60 60 58.8252 60 57.376V6.624C60 5.1748 58.8252 4 57.376 4Z" fill="#3178C6"/>
<path fill-rule="evenodd" clip-rule="evenodd" d="M36.49 47.518V53.654C37.6049 54.2043 38.793 54.5916 40.018 54.804C41.4336 55.0653 42.8705 55.1939 44.31 55.188C45.7129 55.1947 47.1127 55.0532 48.486 54.766C49.7189 54.5169 50.8953 54.0422 51.956 53.366C52.9406 52.7304 53.7522 51.8604 54.318 50.834C55.3312 48.7087 55.4649 46.2693 54.69 44.046C54.363 43.2146 53.8757 42.4555 53.256 41.812C52.5907 41.1277 51.8351 40.5376 51.01 40.058C50.0601 39.5016 49.0731 39.0112 48.056 38.59C47.256 38.258 46.536 37.9353 45.896 37.622C45.3275 37.3498 44.7835 37.0293 44.27 36.664C43.8677 36.382 43.5184 36.0313 43.238 35.628C42.9957 35.2618 42.8695 34.831 42.876 34.392C42.8706 33.9879 42.9832 33.5911 43.2 33.25C43.4354 32.8931 43.7494 32.5948 44.118 32.378C44.5685 32.1127 45.0588 31.9216 45.57 31.812C46.1976 31.6726 46.8391 31.6055 47.482 31.612C48.0227 31.6139 48.5626 31.6526 49.098 31.728C49.6762 31.8062 50.2482 31.9245 50.81 32.082C51.3814 32.2404 51.9402 32.4409 52.482 32.682C53.0076 32.9163 53.5105 33.1989 53.984 33.526V27.8C52.9982 27.427 51.9759 27.1589 50.934 27C49.6758 26.8169 48.4054 26.7307 47.134 26.742C45.7442 26.7345 44.3585 26.8923 43.006 27.212C41.7835 27.4914 40.621 27.9879 39.574 28.678C38.6013 29.3259 37.7982 30.1976 37.232 31.22C36.6319 32.3553 36.335 33.6263 36.37 34.91C36.3257 36.6076 36.8848 38.2659 37.948 39.59C39.2524 41.0582 40.8971 42.1838 42.738 42.868C43.578 43.2147 44.3613 43.554 45.088 43.886C45.7436 44.1777 46.3738 44.5236 46.972 44.92C47.4545 45.2339 47.8782 45.6299 48.224 46.09C48.528 46.5074 48.6893 47.0117 48.684 47.528C48.6867 47.9149 48.5874 48.2957 48.396 48.632C48.1833 48.9934 47.8844 49.2964 47.526 49.514C47.0775 49.7874 46.5869 49.9847 46.074 50.098C45.4059 50.2474 44.7225 50.3179 44.038 50.308C42.6946 50.3055 41.3619 50.0687 40.1 49.608C38.7816 49.1323 37.559 48.4244 36.49 47.518ZM26.182 32.242H34.182V27.188H11.876V32.242H19.84V54.75H26.182V32.242Z" fill="white"/>
</svg>
