<svg width="66" height="64" viewBox="0 0 66 64" fill="none" xmlns="http://www.w3.org/2000/svg">
<g clip-path="url(#clip0_13_391)">
<path d="M54.658 0H10.882C4.8731 0 0.00195312 4.87114 0.00195312 10.88V53.0176C0.00195312 59.0265 4.8731 63.8976 10.882 63.8976H54.658C60.6668 63.8976 65.538 59.0265 65.538 53.0176V10.88C65.538 4.87114 60.6668 0 54.658 0Z" fill="#330000"/>
<path d="M31.7599 38.3462H21.6044L19.538 44.7649C19.5098 44.882 19.4418 44.9856 19.3454 45.0578C19.2491 45.1301 19.1306 45.1665 19.0103 45.1607H13.8665C13.5734 45.1607 13.4708 44.9994 13.5588 44.6769L22.3517 19.3539C22.4395 19.0902 22.5275 18.7899 22.6153 18.4527C22.7305 17.866 22.7894 17.27 22.7912 16.6723C22.7852 16.6304 22.7891 16.5878 22.8024 16.5477C22.8157 16.5077 22.8382 16.4712 22.8681 16.4414C22.8979 16.4115 22.9343 16.389 22.9744 16.3756C23.0145 16.3622 23.0571 16.3583 23.0989 16.3643H30.0893C30.2941 16.3643 30.4113 16.4378 30.441 16.5844L40.4206 44.7209C40.5087 45.0143 40.4206 45.161 40.157 45.1607H34.4415C34.3434 45.1716 34.2446 45.1464 34.1637 45.0897C34.0828 45.0331 34.0253 44.9489 34.002 44.853L31.7599 38.3462ZM23.187 32.8069H30.1333L30.0342 32.48L29.8752 31.9624L29.7618 31.5988L29.5808 31.0264L29.1961 29.8214L28.8576 28.7531L27.9788 25.9704C27.76 25.2787 27.5501 24.5842 27.349 23.8871L27.1883 23.3213L27.0004 22.6524L26.7136 21.6156L26.6599 21.4203H26.6161C26.3961 22.4755 26.1282 23.5203 25.8133 24.5512L25.161 26.6493L24.8021 27.8085L24.4398 28.982C24.3743 29.194 24.3093 29.4036 24.244 29.6107L24.0494 30.2246L23.8559 30.8242L23.6634 31.4089L23.4719 31.979C23.4084 32.1667 23.3449 32.3517 23.2817 32.5345L23.187 32.8069ZM46.3552 21.0245C45.9068 21.0425 45.4597 20.9657 45.043 20.799C44.6264 20.6323 44.2496 20.3796 43.9373 20.0573C43.6259 19.7211 43.384 19.3266 43.2255 18.8965C43.067 18.4664 42.9951 18.0093 43.0139 17.5514C42.998 17.098 43.0778 16.6464 43.2483 16.226C43.4187 15.8056 43.6759 15.4259 44.0031 15.1117C44.6342 14.5059 45.4746 14.1669 46.3494 14.1652L46.443 14.1663C47.4983 14.1663 48.3264 14.4811 48.9273 15.1114C49.2305 15.4389 49.4662 15.823 49.6208 16.2416C49.7755 16.6603 49.846 17.1054 49.8284 17.5514C49.8468 18.0111 49.7727 18.4699 49.6103 18.9004C49.4479 19.331 49.2007 19.7245 48.8832 20.0576C48.5628 20.3735 48.1823 20.6221 47.7643 20.7887C47.3462 20.9553 46.8991 21.0366 46.4492 21.0278L46.3552 21.0245ZM43.3216 44.7209V23.7064C43.3216 23.4427 43.4384 23.3106 43.6734 23.3106H49.0811C49.3154 23.3106 49.4326 23.4424 49.4329 23.7064V44.7209C49.4329 45.0143 49.3156 45.161 49.0811 45.1607H43.7174C43.4676 45.1607 43.336 45.0291 43.3229 44.766L43.3216 44.7209Z" fill="#FF9A00"/>
</g>
<defs>
<clipPath id="clip0_13_391">
<rect width="65.54" height="64" fill="white"/>
</clipPath>
</defs>
</svg>
