<svg width="64" height="64" viewBox="0 0 64 64" fill="none" xmlns="http://www.w3.org/2000/svg">
<path d="M11.804 54.402L7.31201 4H56.688L52.19 54.394L31.97 60L11.804 54.402Z" fill="#1572B6"/>
<path d="M32 55.716L48.34 51.186L52.184 8.122H32V55.716Z" fill="#33A9DC"/>
<path d="M32 26.382H40.18L40.744 20.052H32V13.87H47.5L47.352 15.528L45.834 32.564H32V26.382Z" fill="white"/>
<path d="M32.038 42.436L32.01 42.444L25.126 40.584L24.686 35.654H18.48L19.346 45.36L32.008 48.876L32.038 48.868V42.436Z" fill="#EBEBEB"/>
<path d="M39.6541 32.302L38.9101 40.58L32.0161 42.44V48.872L44.6881 45.36L44.7821 44.316L45.8561 32.302H39.6541Z" fill="white"/>
<path d="M32.0219 13.87V20.052H17.0899L16.9659 18.662L16.6839 15.528L16.5359 13.87H32.0219ZM31.9999 26.382V32.564H25.2019L25.0779 31.174L24.7979 28.04L24.6499 26.382H31.9999Z" fill="#EBEBEB"/>
</svg>
