<svg width="64" height="64" viewBox="0 0 64 64" fill="none" xmlns="http://www.w3.org/2000/svg">
<g clip-path="url(#clip0_13_382)">
<path d="M13.333 0C5.985 0 0 5.985 0 13.333C0 19.768 4.5905 25.1585 10.667 26.398V45.333C10.667 51.218 15.507 56 21.333 56H21.4305C22.0815 60.5115 25.9805 64 30.667 64C35.806 64 40 59.806 40 54.667C40 49.528 35.806 45.333 30.667 45.333C25.981 45.333 22.082 48.8215 21.4305 53.333H21.333C16.9645 53.333 13.333 49.757 13.333 45.333V31.8895C14.1959 32.7699 15.226 33.4692 16.3628 33.9461C17.4996 34.4231 18.7202 34.6682 19.953 34.667H21.4305C22.082 39.1785 25.9805 42.667 30.667 42.667C35.353 42.667 39.2515 39.1785 39.902 34.667H45.4305C46.082 39.1785 49.9805 42.667 54.667 42.667C59.806 42.667 64 38.472 64 33.333C64 28.194 59.806 24 54.667 24C49.9805 24 46.0815 27.4885 45.4305 32H39.9025C39.252 27.4885 35.3535 24 30.667 24C25.9805 24 22.0815 27.4885 21.4305 32H19.953C16.7365 32 14.0565 29.7055 13.459 26.664C20.749 26.596 26.667 20.639 26.667 13.333C26.667 5.985 20.681 0 13.333 0ZM13.333 2.667C14.7345 2.66423 16.1228 2.93822 17.4181 3.47325C18.7135 4.00827 19.8905 4.7938 20.8815 5.78477C21.8726 6.77574 22.6582 7.95264 23.1934 9.24795C23.7285 10.5433 24.0026 11.9315 24 13.333C24.0026 14.7346 23.7285 16.1228 23.1934 17.4182C22.6583 18.7136 21.8726 19.8905 20.8816 20.8816C19.8905 21.8726 18.7136 22.6583 17.4182 23.1934C16.1228 23.7285 14.7346 24.0026 13.333 24C11.9315 24.0026 10.5433 23.7285 9.24795 23.1934C7.95264 22.6582 6.77574 21.8726 5.78477 20.8815C4.7938 19.8905 4.00827 18.7135 3.47325 17.4181C2.93822 16.1228 2.66423 14.7345 2.667 13.333C2.66423 11.9315 2.93823 10.5433 3.47326 9.24803C4.0083 7.95272 4.79385 6.77581 5.78483 5.78483C6.77581 4.79385 7.95272 4.0083 9.24803 3.47326C10.5433 2.93823 11.9315 2.66423 13.333 2.667ZM10.7255 6.4375C9.335 6.4445 8 7.5615 8 9.083V17.6045C8 19.626 10.3545 20.936 12.0725 19.871L18.8895 15.6435C20.518 14.6335 20.5265 12.1425 18.9055 11.121L12.088 6.826C11.6805 6.56845 11.2075 6.43359 10.7255 6.4375ZM10.667 9.083L17.4845 13.377L10.667 17.6045V9.083ZM30.667 26.667C31.5432 26.6642 32.4112 26.8348 33.2212 27.1688C34.0313 27.5028 34.7672 27.9937 35.3868 28.6132C36.0063 29.2328 36.4972 29.9687 36.8312 30.7788C37.1652 31.5888 37.3358 32.4568 37.333 33.333C37.3357 34.2092 37.1651 35.0773 36.8311 35.8873C36.4971 36.6974 36.0062 37.4333 35.3867 38.053C34.7671 38.6726 34.0312 39.1636 33.2212 39.4977C32.4113 39.8319 31.5432 40.0026 30.667 40C29.7907 40.0026 28.9226 39.832 28.1125 39.4979C27.3025 39.1638 26.5664 38.6728 25.9468 38.0532C25.3272 37.4336 24.8362 36.6975 24.5021 35.8875C24.168 35.0774 23.9974 34.2093 24 33.333C23.9974 32.4568 24.1681 31.5887 24.5023 30.7788C24.8364 29.9688 25.3274 29.2329 25.947 28.6133C26.5667 27.9938 27.3026 27.5029 28.1127 27.1689C28.9227 26.8349 29.7908 26.6643 30.667 26.667ZM54.667 26.667C55.5432 26.6642 56.4112 26.8348 57.2212 27.1688C58.0313 27.5028 58.7672 27.9937 59.3868 28.6132C60.0063 29.2328 60.4972 29.9687 60.8312 30.7788C61.1652 31.5888 61.3358 32.4568 61.333 33.333C61.3357 34.2092 61.1651 35.0773 60.8311 35.8873C60.4971 36.6974 60.0062 37.4333 59.3867 38.053C58.7671 38.6726 58.0312 39.1636 57.2212 39.4977C56.4113 39.8319 55.5432 40.0026 54.667 40C53.7907 40.0026 52.9226 39.832 52.1125 39.4979C51.3025 39.1638 50.5664 38.6728 49.9468 38.0532C49.3272 37.4336 48.8362 36.6975 48.5021 35.8875C48.168 35.0774 47.9974 34.2093 48 33.333C47.9974 32.4568 48.1681 31.5887 48.5023 30.7788C48.8364 29.9688 49.3274 29.2329 49.947 28.6133C50.5667 27.9938 51.3026 27.5029 52.1127 27.1689C52.9227 26.8349 53.7908 26.6643 54.667 26.667ZM33.383 30.1425C33.2078 30.1423 33.0343 30.1767 32.8724 30.2436C32.7106 30.3105 32.5634 30.4087 32.4395 30.5325L29.2895 33.6795L28.243 32.6375C27.9925 32.3879 27.6532 32.248 27.2996 32.2486C26.946 32.2492 26.6072 32.3901 26.3575 32.6405C26.2339 32.7646 26.136 32.9118 26.0693 33.0738C26.0026 33.2357 25.9685 33.4092 25.9689 33.5843C25.9692 33.7595 26.0041 33.9328 26.0715 34.0945C26.1388 34.2561 26.2374 34.4029 26.3615 34.5265L28.3485 36.5065C28.5985 36.7556 28.9371 36.8955 29.2901 36.8954C29.6431 36.8953 29.9816 36.7553 30.2315 36.506L34.324 32.419C34.4479 32.2952 34.5462 32.1483 34.6133 31.9865C34.6805 31.8247 34.7151 31.6513 34.7151 31.4762C34.7152 31.3011 34.6808 31.1276 34.6139 30.9658C34.547 30.804 34.4488 30.6569 34.325 30.533C34.0751 30.2834 33.7363 30.1426 33.383 30.1425ZM57.383 30.1425C57.2078 30.1423 57.0343 30.1767 56.8724 30.2436C56.7106 30.3105 56.5634 30.4087 56.4395 30.5325L53.2895 33.6795L52.243 32.6375C51.9925 32.3879 51.6532 32.248 51.2996 32.2486C50.946 32.2492 50.6072 32.3901 50.3575 32.6405C50.2339 32.7646 50.136 32.9118 50.0693 33.0738C50.0026 33.2357 49.9685 33.4092 49.9689 33.5843C49.9692 33.7595 50.0041 33.9328 50.0715 34.0945C50.1388 34.2561 50.2374 34.4029 50.3615 34.5265L52.3485 36.5065C52.5985 36.7556 52.9371 36.8955 53.2901 36.8954C53.6431 36.8953 53.9816 36.7553 54.2315 36.506L58.324 32.419C58.4479 32.2952 58.5462 32.1483 58.6133 31.9865C58.6805 31.8247 58.7151 31.6513 58.7151 31.4762C58.7152 31.3011 58.6808 31.1276 58.6139 30.9658C58.547 30.804 58.4488 30.6569 58.325 30.533C58.0751 30.2834 57.7363 30.1426 57.383 30.1425ZM30.667 48C31.5432 47.9974 32.4113 48.1681 33.2212 48.5023C34.0312 48.8364 34.7671 49.3274 35.3867 49.947C36.0062 50.5667 36.4971 51.3026 36.8311 52.1127C37.1651 52.9227 37.3357 53.7908 37.333 54.667C37.3358 55.5432 37.1652 56.4112 36.8312 57.2212C36.4972 58.0313 36.0063 58.7672 35.3868 59.3868C34.7672 60.0063 34.0313 60.4972 33.2212 60.8312C32.4112 61.1652 31.5432 61.3358 30.667 61.333C29.7908 61.3357 28.9227 61.1651 28.1127 60.8311C27.3026 60.4971 26.5667 60.0062 25.947 59.3867C25.3274 58.7671 24.8364 58.0312 24.5023 57.2212C24.1681 56.4113 23.9974 55.5432 24 54.667C23.9974 53.7907 24.168 52.9226 24.5021 52.1125C24.8362 51.3025 25.3272 50.5664 25.9468 49.9468C26.5664 49.3272 27.3025 48.8362 28.1125 48.5021C28.9226 48.168 29.7907 47.9974 30.667 48ZM28 52.667C26.9035 52.667 26 53.5705 26 54.667C26 55.7645 26.904 56.667 28 56.667C29.096 56.667 30 55.7645 30 54.667C30 53.5705 29.0965 52.667 28 52.667ZM33.333 52.667C32.2365 52.667 31.333 53.5705 31.333 54.667C31.333 55.7645 32.237 56.667 33.333 56.667C34.429 56.667 35.333 55.7645 35.333 54.667C35.333 53.5705 34.4295 52.667 33.333 52.667ZM28 54C28.375 54 28.667 54.2925 28.667 54.667C28.667 55.0435 28.3755 55.333 28 55.333C27.625 55.333 27.333 55.043 27.333 54.667C27.333 54.292 27.6255 54 28 54ZM33.333 54C33.708 54 34 54.2925 34 54.667C34 55.0435 33.7085 55.333 33.333 55.333C32.958 55.333 32.667 55.043 32.667 54.667C32.667 54.292 32.9585 54 33.333 54Z" fill="#2088FF"/>
<path d="M54.6669 45.333C49.9754 45.333 46.0729 48.8295 45.4284 53.3485C45.3844 53.3445 45.3402 53.3426 45.2959 53.343L43.9459 53.388C43.5926 53.3996 43.2584 53.551 43.0167 53.8089C42.775 54.0669 42.6456 54.4102 42.6569 54.7635C42.6685 55.1169 42.82 55.4512 43.0781 55.6929C43.3361 55.9346 43.6796 56.064 44.0329 56.0525L45.3829 56.009C45.3991 56.0083 45.4153 56.0073 45.4314 56.006C46.0849 60.5145 49.9824 64 54.6669 64C59.8059 64 63.9999 59.806 63.9999 54.667C63.9999 49.528 59.8059 45.333 54.6669 45.333ZM54.6669 48C55.5431 47.9974 56.4112 48.1681 57.2212 48.5023C58.0312 48.8364 58.7671 49.3274 59.3866 49.947C60.0061 50.5667 60.497 51.3026 60.831 52.1127C61.1651 52.9227 61.3356 53.7908 61.3329 54.667C61.3357 55.5432 61.1652 56.4112 60.8312 57.2212C60.4971 58.0313 60.0062 58.7672 59.3867 59.3868C58.7671 60.0063 58.0312 60.4972 57.2212 60.8312C56.4112 61.1652 55.5431 61.3358 54.6669 61.333C53.7907 61.3357 52.9227 61.1651 52.1126 60.8311C51.3026 60.4971 50.5666 60.0062 49.947 59.3867C49.3274 58.7671 48.8364 58.0312 48.5022 57.2212C48.1681 56.4113 47.9974 55.5432 47.9999 54.667C47.9973 53.7907 48.1679 52.9226 48.5021 52.1125C48.8362 51.3025 49.3271 50.5664 49.9468 49.9468C50.5664 49.3272 51.3024 48.8362 52.1125 48.5021C52.9225 48.168 53.7907 47.9974 54.6669 48Z" fill="#79B8FF"/>
</g>
<defs>
<clipPath id="clip0_13_382">
<rect width="64" height="64" fill="white"/>
</clipPath>
</defs>
</svg>
