<svg fill="none" height="64" viewBox="0 0 64 64" width="64" xmlns="http://www.w3.org/2000/svg"><path d="m11.8041 54.402-4.49404-50.402h49.38004l-4.5 50.394-20.22 5.606z" fill="#e44f26"/><path d="m32 55.716 16.34-4.53 3.844-43.064h-20.184z" fill="#f1662a"/><path d="m32 26.814h-8.18l-.564-6.33h8.744v-6.182h-15.5l.148 1.66 1.518 17.034h13.834zm0 16.054-.028.008-6.884-1.858-.44-4.93h-6.206l.866 9.704 12.664 3.516.028-.008z" fill="#ebebeb"/><path d="m31.978 26.814v6.182h7.612l-.716 8.018-6.896 1.86v6.432l12.674-3.514.092-1.044 1.452-16.274.152-1.66h-1.666zm0-12.512v6.182h14.932l.124-1.388.282-3.134.148-1.66z" fill="#fff"/></svg>