<svg width="66" height="64" viewBox="0 0 66 64" fill="none" xmlns="http://www.w3.org/2000/svg">
<g clip-path="url(#clip0_13_397)">
<path d="M54.738 0H10.962C4.95317 0 0.0820312 4.87114 0.0820312 10.88V53.0176C0.0820312 59.0265 4.95317 63.8976 10.962 63.8976H54.738C60.7469 63.8976 65.618 59.0265 65.618 53.0176V10.88C65.618 4.87114 60.7469 0 54.738 0Z" fill="#470137"/>
<path d="M34.5342 16.8038L26.3568 30.3009L35.1056 44.6331C35.1619 44.7334 35.1775 44.8512 35.1496 44.9628C35.136 45.0104 35.1068 45.0222 35.062 45.024L35.0124 45.0232L34.952 45.0217C34.9192 45.0217 34.8826 45.0232 34.8419 45.0299H28.534L28.4101 45.0278C28.0702 45.0189 27.8252 44.9702 27.6759 44.7209C27.0923 43.5839 26.506 42.4482 25.9172 41.3138C25.3905 40.302 24.8494 39.2978 24.2942 38.3014L24.0489 37.8627C23.3848 36.6823 22.7326 35.4953 22.0926 34.3017H22.0485C21.4574 35.4828 20.8492 36.6552 20.224 37.8186C19.5935 38.9911 18.9706 40.1564 18.3555 41.3138C17.7399 42.4721 17.1098 43.6226 16.4652 44.7649C16.3615 44.9979 16.1892 45.0465 15.9493 45.0545L15.8495 45.056H9.82658L9.80047 45.0568L9.71445 45.0644C9.66658 45.0673 9.63791 45.057 9.62869 44.9848C9.61217 44.8776 9.63568 44.7681 9.69474 44.6771L18.1796 30.7405L9.91439 16.7603C9.82658 16.6436 9.81199 16.5483 9.87035 16.4746C9.9028 16.4371 9.94353 16.4076 9.98934 16.3885C10.0351 16.3694 10.0848 16.3612 10.1343 16.3645H16.3331C16.4683 16.3571 16.6034 16.3797 16.7288 16.4306C16.8338 16.4902 16.9242 16.5729 16.9925 16.6725C17.5201 17.845 18.1064 19.0175 18.7513 20.1894C19.3911 21.354 20.0433 22.5118 20.7076 23.6626C21.3618 24.7956 21.9704 25.9542 22.5321 27.1357H22.5761C23.1518 25.9545 23.7454 24.782 24.3566 23.6188C24.9569 22.4758 25.5726 21.3251 26.2029 20.1674C26.8252 19.0246 27.4334 17.8743 28.0274 16.7165C28.0612 16.608 28.1216 16.5097 28.2033 16.4306C28.3119 16.3756 28.4339 16.3527 28.555 16.3645H34.3143C34.3672 16.3513 34.423 16.3557 34.4733 16.3769C34.5235 16.3982 34.5655 16.4352 34.593 16.4824C34.6204 16.5295 34.6318 16.5843 34.6254 16.6385C34.619 16.6927 34.5951 16.7434 34.5575 16.7828L34.5342 16.8038ZM47.4545 45.5969L47.1514 45.6003C45.1278 45.6311 43.1228 45.2106 41.2821 44.3694C39.5673 43.5758 38.1339 42.2803 37.1715 40.6543C36.201 39.0426 35.7028 37.034 35.6777 34.6294L35.6767 34.4335C35.6602 32.4158 36.1759 30.4293 37.1717 28.6743C38.1684 26.9373 39.6213 25.5061 41.3732 24.5358L41.524 24.4539C43.4286 23.3987 45.7296 22.871 48.4263 22.871L48.544 22.8723L48.6787 22.8767L48.8297 22.8833L48.9977 22.8931L49.2798 22.913L49.5992 22.9386L49.833 22.9591V14.2981C49.833 14.0933 49.921 13.9904 50.0967 13.9904H55.6362C55.6721 13.9853 55.7086 13.9885 55.7429 14C55.7773 14.0114 55.8085 14.0307 55.834 14.0563C55.8596 14.0819 55.8789 14.1131 55.8904 14.1474C55.9018 14.1817 55.9051 14.2183 55.8999 14.2541V40.2368C55.8999 40.673 55.9168 41.143 55.9506 41.6458L56.0325 42.7863L56.076 43.446C56.0815 43.5374 56.0592 43.6282 56.0121 43.7067C55.965 43.7852 55.8953 43.8476 55.8121 43.8858C54.383 44.4818 52.8945 44.9238 51.3718 45.2045C50.0791 45.4431 48.7688 45.5743 47.4545 45.5969ZM49.833 40.1487V28.1467C49.5954 28.0823 49.3528 28.0382 49.1077 28.0148C48.8082 27.9847 48.5074 27.97 48.2064 27.9708C47.1395 27.9603 46.0852 28.2013 45.129 28.6743C44.1975 29.1373 43.4022 29.8342 42.8209 30.6967C42.2405 31.5456 41.9402 32.6541 41.9205 34.0221L41.9195 34.1699C41.8981 35.1281 42.0546 36.0821 42.3811 36.9833C42.6468 37.7096 43.0669 38.3696 43.6124 38.9179C44.1345 39.4222 44.7665 39.7984 45.4587 40.0169C46.1899 40.2537 46.9542 40.3725 47.7228 40.3689C48.1329 40.3689 48.5138 40.354 48.8658 40.3246C49.1465 40.3035 49.4248 40.2572 49.6973 40.1864L49.833 40.1487Z" fill="#FF61F6"/>
</g>
<defs>
<clipPath id="clip0_13_397">
<rect width="65.54" height="64" fill="white" transform="translate(0.0800781)"/>
</clipPath>
</defs>
</svg>
