<svg width="64" height="64" viewBox="0 0 64 64" fill="none" xmlns="http://www.w3.org/2000/svg">
<path d="M32.0001 28.4C34.5682 28.4 36.6501 26.3181 36.6501 23.75C36.6501 21.1819 34.5682 19.1 32.0001 19.1C29.432 19.1 27.3501 21.1819 27.3501 23.75C27.3501 26.3181 29.432 28.4 32.0001 28.4Z" fill="#61DAFB"/>
<path d="M32 40.85C35.65 44.4 39.25 46.5 42.1501 46.5C43.1001 46.5 44 46.3 44.75 45.85C47.35 44.35 48.3001 40.6 47.4001 35.25C47.25 34.3 47.05 33.35 46.8 32.35C47.8 32.05 48.7 31.75 49.6 31.45C54.65 29.5 57.4501 26.8 57.4501 23.85C57.4501 20.85 54.65 18.15 49.6 16.25C48.7 15.9 47.8 15.6 46.8 15.35C47.05 14.35 47.25 13.4 47.4001 12.45C48.25 7 47.3 3.2 44.7001 1.7C43.9501 1.25 43.05 1.05 42.1 1.05C39.25 1.05 35.6 3.15 31.9501 6.7C28.35 3.15 24.75 1.05 21.85 1.05C20.9 1.05 20 1.25 19.25 1.7C16.65 3.2 15.7 6.95 16.6 12.3C16.75 13.25 16.95 14.2 17.2 15.2C16.2 15.5 15.3 15.8 14.4 16.1C9.35005 18.05 6.55005 20.75 6.55005 23.7C6.55005 26.7 9.35005 29.4 14.4 31.3C15.3 31.65 16.2 31.95 17.2 32.2C16.95 33.2 16.75 34.15 16.6 35.1C15.75 40.45 16.7 44.25 19.25 45.7C20 46.15 20.9 46.35 21.85 46.35C24.75 46.45 28.35 44.35 32 40.85ZM29.2001 34.1C30.1 34.15 31.05 34.15 32 34.15C32.9501 34.15 33.9 34.15 34.8 34.1C33.9 35.3 32.9501 36.4 32 37.45C31.05 36.4 30.1 35.3 29.2001 34.1ZM23 28.95C23.5 29.8 23.9501 30.6 24.5 31.4C22.9501 31.2 21.5 30.95 20.1 30.65C20.55 29.3 21.05 27.9 21.65 26.5C22.05 27.3 22.5 28.15 23 28.95ZM20.1 16.9C21.5 16.6 22.9501 16.35 24.5 16.15C24 16.95 23.5 17.75 23 18.6C22.5 19.45 22.05 20.25 21.65 21.1C21 19.65 20.5 18.25 20.1 16.9ZM22.85 23.75C23.5 22.4 24.2001 21.05 25 19.7C25.75 18.4 26.6 17.1 27.4501 15.8C28.9501 15.7 30.4501 15.65 32 15.65C33.6 15.65 35.1 15.7 36.55 15.8C37.45 17.1 38.25 18.4 39 19.7C39.8 21.05 40.5 22.4 41.1501 23.75C40.5 25.1 39.8 26.45 39 27.8C38.25 29.1 37.4 30.4 36.55 31.7C35.05 31.8 33.55 31.85 32 31.85C30.4 31.85 28.9001 31.8 27.4501 31.7C26.5501 30.4 25.75 29.1 25 27.8C24.2001 26.45 23.5 25.1 22.85 23.75ZM42.4001 21.05L41.05 18.55C40.55 17.7 40.1 16.9 39.55 16.1C41.1 16.3 42.55 16.55 43.9501 16.85C43.5 18.25 43 19.65 42.4001 21.05ZM42.4001 26.45C43 27.85 43.5 29.25 43.9501 30.6C42.55 30.9 41.1 31.15 39.55 31.35C40.05 30.55 40.55 29.75 41.05 28.9C41.5 28.15 41.9501 27.3 42.4001 26.45ZM43.55 43.8C43.15 44.05 42.65 44.15 42.1 44.15C39.65 44.15 36.6 42.15 33.6 39.15C35.05 37.6 36.45 35.85 37.85 33.9C40.2 33.7 42.4501 33.35 44.55 32.85C44.8 33.75 44.95 34.65 45.1 35.55C45.8 39.8 45.25 42.85 43.55 43.8ZM46.1501 17.45C51.75 19.05 55.1 21.5 55.1 23.75C55.1 25.7 52.8 27.65 48.75 29.2C47.9501 29.5 47.0501 29.8 46.1501 30.05C45.5 28 44.7001 25.9 43.7001 23.75C44.7001 21.6 45.5501 19.5 46.1501 17.45ZM42.1501 3.35C42.7001 3.35 43.15 3.45 43.6 3.7C45.25 4.65 45.8501 7.65 45.1501 11.95C45 12.8 44.8 13.7 44.6 14.65C42.5 14.2 40.25 13.85 37.9001 13.6C36.5501 11.65 35.1001 9.9 33.6501 8.35C36.6501 5.4 39.7001 3.35 42.1501 3.35ZM34.8 13.4C33.9 13.35 32.9501 13.35 32 13.35C31.05 13.35 30.1 13.35 29.2001 13.4C30.1 12.2 31.05 11.1 32 10.05C32.9501 11.1 33.9 12.25 34.8 13.4ZM20.45 3.7C20.85 3.45 21.35 3.35 21.9 3.35C24.35 3.35 27.4 5.35 30.4 8.35C28.95 9.9 27.55 11.65 26.15 13.6C23.8 13.8 21.55 14.15 19.45 14.65C19.2 13.75 19.05 12.85 18.9 11.95C18.2 7.7 18.75 4.7 20.45 3.7ZM17.85 30.05C12.25 28.45 8.90005 26 8.90005 23.75C8.90005 21.8 11.2 19.85 15.25 18.3C16.05 18 16.95 17.7 17.85 17.45C18.5 19.5 19.3 21.6 20.3 23.75C19.3 25.9 18.45 28.05 17.85 30.05ZM18.9 35.55C19.05 34.7 19.25 33.8 19.45 32.85C21.55 33.3 23.8 33.65 26.15 33.9C27.5 35.85 28.95 37.6 30.4 39.15C27.4 42.1 24.35 44.15 21.9 44.15C21.35 44.15 20.9 44.05 20.45 43.8C18.75 42.85 18.2 39.8 18.9 35.55ZM16.8 56.15C17.9 54.8 17.95 53.3 17.35 51.8C16.75 50.3 15.5 49.6 13.95 49.55C12.1 49.5 10.2 49.55 8.35005 49.55H8.00005V62.5H9.50005V57.6H11.85C12.15 57.6 12.4 57.7 12.55 57.95L15.55 62.6C15.6 62.7 15.75 62.85 15.85 62.85H17.8C16.6 61 15.45 59.25 14.25 57.45C15.3 57.3 16.2 56.95 16.8 56.15ZM9.50005 56.05V51.1H10.05C11.2 51.1 12.4 51.05 13.55 51.15C14.9 51.2 15.85 52.25 15.85 53.6C15.85 54.95 14.75 56 13.4 56.05C12.2 56.1 11 56.05 9.50005 56.05ZM28.85 56.7C28.05 53.2 24.85 52.3 22.4 53.4C20.5 54.25 19.65 55.9 19.6 57.95C19.55 59.5 20 60.9 21.2 61.95C22.55 63.15 24.2 63.3 25.9 63C26.85 62.8 27.7 62.35 28.35 61.65C28.1 61.3 27.85 60.95 27.6 60.65C26.2 61.85 24.6501 62.25 22.9501 61.45C21.85 60.9 21.3 59.55 21.2 58.55H28.9501V57.9C29 57.45 28.95 57.05 28.85 56.7ZM21.3 57.5C21.15 56 22.65 54.4 24.3 54.4C26.2 54.35 27.4001 55.5 27.4501 57.5H21.3ZM36.6501 53.15C35.9001 53 35.1 52.95 34.35 53C33.15 53.1 32.1 53.65 31.25 54.55C31.5 54.9 31.7001 55.25 32 55.65C32.1 55.55 32.2 55.45 32.3 55.4C33.1 54.65 34.0501 54.25 35.2001 54.35C36.1 54.4 36.9501 54.7 37.2001 55.6C37.4001 56.3 37.3501 57.05 37.4001 57.8C37.2501 57.8 37.2001 57.75 37.1501 57.7C35.9501 56.7 34.6001 56.5 33.1501 56.85C31.8001 57.2 30.95 58.25 30.85 59.6C30.75 61.15 31.45 62.3 32.8 62.85C33.65 63.2 34.6 63.2 35.5 63C36.2001 62.85 36.5 62.45 37.5 61.9V62.55H38.9001C38.9001 60.55 38.9501 58.1 38.9001 55.8C38.9001 54.35 38.0501 53.45 36.6501 53.15ZM37.35 59.45C37.3 59.6 37.35 59.75 37.35 59.9C37.35 60.95 37.1 61.3 36.1 61.7C35.4 61.95 34.6501 62.05 33.9001 61.8C33.0501 61.55 32.4501 60.8 32.4501 59.95C32.4001 59.1 32.95 58.25 33.8 58C34.95 57.6 36 57.85 36.9501 58.55C37.25 58.8 37.45 59.05 37.35 59.45ZM45.1501 54.5C46.4501 54.1 47.65 54.35 48.55 55.45L48.7001 55.55C49.05 55.25 49.35 54.95 49.75 54.6C49.6 54.45 49.55 54.35 49.4501 54.2C48 52.65 45.1501 52.45 43.4001 53.7C40.9501 55.5 41 59 42.2001 60.85C43.3501 62.6 45 63.2 46.9501 62.95C48.1001 62.8 49.05 62.25 49.8 61.3C49.4501 61 49.1 60.7 48.75 60.35C48.6501 60.45 48.6 60.5 48.55 60.6C47.2001 62.1 44.9501 61.95 43.75 60.35C43.05 59.4 42.9 58.3 43.1 57.2C43.2 55.95 43.8501 54.95 45.1501 54.5ZM55.55 61.3C55.4501 61.35 55.4001 61.4 55.4001 61.4C55 61.7 54.6001 61.75 54.1501 61.6C53.7001 61.4 53.65 61 53.6 60.6V54.9C53.6 54.8 53.6001 55 53.6501 54.5H55.55V53H53.55V50.5H52.05V53.2H50.75C50.6501 53.2 50.5 53.3 50.5 53.4C50.4501 53.75 50.5 54 50.5 54.5H52.1V60.9C52.1 61.7 52.3 62.4 53 62.8C53.75 63.25 55.2 63.15 55.85 62.6C55.95 62.55 56 62.35 56 62.3C55.85 62 55.7001 61.65 55.55 61.3Z" fill="#61DAFB"/>
</svg>
