<svg width="64" height="64" viewBox="0 0 64 64" fill="none" xmlns="http://www.w3.org/2000/svg">
<path d="M32.342 37.4C31.38 37.842 30.326 38.418 28.216 39.576C27.416 40.026 26.58 40.476 25.802 40.9C25.748 40.846 25.692 40.778 25.638 40.722C21.464 36.262 13.744 33.112 14.072 27.122C14.194 24.94 14.944 19.212 28.898 12.256C40.382 6.596 49.52 8.164 51.098 11.642C53.366 16.6 46.2 25.826 34.34 27.164C33.0274 27.4302 31.6717 27.3981 30.3732 27.0699C29.0747 26.7417 27.8665 26.1259 26.838 25.268C26.21 24.586 26.116 24.546 25.884 24.682C25.502 24.882 25.748 25.5 25.884 25.854C26.3364 26.6731 26.9484 27.3932 27.6839 27.9717C28.4194 28.5501 29.2634 28.9753 30.166 29.222C34.8332 30.2308 39.6994 29.7488 44.078 27.844C51.266 25.062 56.878 17.328 55.234 10.844C53.584 4.27 42.672 2.102 32.348 5.77C25.8826 7.94879 19.9091 11.3786 14.768 15.864C9.08001 21.184 8.18001 25.808 8.54801 27.744C9.87201 34.618 19.348 39.092 23.148 42.406C22.948 42.516 22.78 42.606 22.63 42.692C20.734 43.634 13.506 47.412 11.704 51.408C9.65801 55.936 12.032 59.182 13.6 59.618C15.963 60.184 18.4437 59.9979 20.6958 59.0858C22.9479 58.1736 24.859 56.5809 26.162 54.53C27.2686 52.8293 27.948 50.8866 28.1427 48.867C28.3373 46.8474 28.0414 44.8107 27.28 42.93C27.7292 42.5717 28.2083 42.2525 28.712 41.976C29.68 41.404 30.602 40.84 31.42 40.404C34.2208 39.0921 37.2772 38.4166 40.37 38.426C46.862 39.19 48.144 43.24 47.898 44.946C47.7829 45.5513 47.5395 46.1249 47.1842 46.6282C46.8289 47.1315 46.3698 47.5529 45.838 47.864C45.388 48.15 45.238 48.246 45.278 48.45C45.332 48.75 45.55 48.736 45.932 48.682C46.9074 48.3737 47.7667 47.7776 48.3971 46.972C49.0275 46.1664 49.3994 45.1889 49.464 44.168C49.664 40.168 45.85 35.78 39.098 35.82C37.0763 35.8235 35.0747 36.2223 33.206 36.994C32.906 37.118 32.6147 37.2513 32.332 37.394L32.342 37.4ZM22.692 53.078C20.536 55.424 17.536 56.31 16.24 55.56C14.84 54.76 15.394 51.29 18.04 48.808C19.6071 47.396 21.301 46.1313 23.1 45.03C23.414 44.83 23.878 44.566 24.436 44.23L24.586 44.148L24.914 43.948C25.3859 45.5302 25.4289 47.2094 25.0384 48.8137C24.648 50.4179 23.8382 51.8896 22.692 53.078Z" fill="#CD6799"/>
</svg>
