<svg width="67" height="64" viewBox="0 0 67 64" fill="none" xmlns="http://www.w3.org/2000/svg">
<g clip-path="url(#clip0_13_394)">
<path d="M55.198 0H11.422C5.41313 0 0.541992 4.87114 0.541992 10.88V53.0176C0.541992 59.0265 5.41313 63.8976 11.422 63.8976H55.198C61.2069 63.8976 66.078 59.0265 66.078 53.0176V10.88C66.078 4.87114 61.2069 0 55.198 0Z" fill="#001E36"/>
<path d="M15.2988 44.809V16.716C15.2988 16.5112 15.3869 16.4083 15.5628 16.4083L15.841 16.4076L16.3167 16.4024L16.9777 16.3894L19.1921 16.3425L21.5665 16.2985C22.4015 16.2842 23.2295 16.2765 24.0502 16.2765C26.2774 16.2765 28.1531 16.555 29.6776 17.1118C31.0527 17.577 32.3068 18.3429 33.3486 19.3539C34.2318 20.2302 34.9143 21.2878 35.349 22.4535C35.7603 23.5879 35.9687 24.7858 35.9647 25.9924C35.9647 28.3377 35.4222 30.272 34.3378 31.7957C33.2771 33.2822 31.7977 34.4191 30.0882 35.0612L29.9415 35.115C28.1564 35.7809 26.1796 36.0215 24.0115 36.0366L23.6746 36.0376L23.1747 36.0351L22.9225 36.0315L22.6414 36.0248L22.4719 36.0182L22.369 36.0128L22.1159 36.0036L21.8063 35.9972L21.3404 35.9939L21.2367 35.9936V44.7649C21.2445 44.8187 21.2395 44.8735 21.2224 44.9251C21.2052 44.9766 21.1763 45.0234 21.1379 45.0618C21.0995 45.1002 21.0526 45.1292 21.0011 45.1463C20.9496 45.1635 20.8947 45.1684 20.841 45.1607H15.6068C15.4012 45.1607 15.2988 45.044 15.2988 44.809ZM21.237 21.684V30.8467C21.5879 30.875 21.9397 30.8897 22.2917 30.8908H23.7427C24.7431 30.8874 25.7377 30.7385 26.6952 30.4486L26.8862 30.389C27.7572 30.1303 28.5356 29.6266 29.1285 28.938C29.6794 28.2883 29.9648 27.393 29.9845 26.252L29.9858 26.1243C30.0088 25.2739 29.7877 24.4347 29.3481 23.7064C28.8861 23.002 28.2184 22.457 27.4358 22.1455C26.4138 21.7483 25.3222 21.5615 24.2263 21.5962L23.6687 21.5977L23.317 21.6008L22.9814 21.6051L22.5078 21.6143L22.1622 21.6241L21.9827 21.6307L21.7429 21.642L21.5386 21.6545L21.4221 21.6637L21.3215 21.6735L21.2772 21.6786L21.237 21.684ZM52.9631 29.1807C52.1962 28.7866 51.3827 28.4905 50.5418 28.2995L50.3473 28.2575C49.4222 28.0453 48.4779 27.9283 47.529 27.9086L47.2919 27.9058C46.7356 27.8907 46.1802 27.9574 45.6433 28.1037C45.3015 28.1797 44.9976 28.3743 44.7857 28.6531C44.6424 28.8761 44.5662 29.1355 44.566 29.4006C44.5741 29.6576 44.6667 29.9048 44.8297 30.1038C45.063 30.3767 45.3436 30.6054 45.6579 30.7789L45.7531 30.8293C46.3799 31.1668 47.0258 31.4677 47.6874 31.7304C49.1629 32.2244 50.5727 32.8961 51.8858 33.7308C52.7805 34.2954 53.5209 35.0735 54.0403 35.9951C54.4771 36.8677 54.6958 37.833 54.6778 38.8086C54.7041 40.097 54.3359 41.3626 53.6225 42.4358C52.8589 43.5251 51.7982 44.372 50.5669 44.8755C49.2775 45.4423 47.6938 45.7349 45.8163 45.7541L45.6213 45.7551C44.4573 45.7669 43.2951 45.6651 42.1509 45.451L41.9062 45.4034C40.9429 45.2267 40.0052 44.9314 39.1145 44.524C39.025 44.4778 38.9494 44.4087 38.8953 44.3237C38.8412 44.2387 38.8107 44.1409 38.8068 44.0402V39.2484C38.8015 39.2019 38.809 39.1548 38.8284 39.1122C38.8478 39.0696 38.8783 39.0331 38.9169 39.0065C38.9546 38.9851 38.998 38.9758 39.0411 38.9797C39.0843 38.9837 39.1253 39.0007 39.1585 39.0285C40.2103 39.6487 41.3524 40.1011 42.5436 40.3694C43.5936 40.6326 44.6707 40.7728 45.7531 40.7872C46.7786 40.7872 47.5333 40.6551 48.0172 40.3914C48.2356 40.2914 48.4205 40.1302 48.5492 39.9274C48.678 39.7245 48.7452 39.4887 48.7427 39.2484C48.7427 38.868 48.5228 38.5014 48.0832 38.1494C47.8989 38.0019 47.6344 37.8414 47.2904 37.6681L47.1258 37.5872L46.9502 37.5045L46.858 37.4625L46.665 37.377C46.6315 37.3624 46.5979 37.3479 46.5644 37.3335L46.3544 37.2454L46.2451 37.2006L46.0183 37.1098L45.9006 37.0637L45.6566 36.9697L45.4014 36.8742C44.0209 36.3938 42.712 35.7283 41.5104 34.8959C40.6511 34.2982 39.9435 33.5078 39.4442 32.5878C39.0119 31.7215 38.7933 30.7642 38.8068 29.7961C38.8043 28.6329 39.1238 27.4917 39.7299 26.4988C40.4211 25.4057 41.4134 24.5353 42.5877 23.9931C43.8771 23.3487 45.4889 23.0262 47.4235 23.0257C48.5566 23.0166 49.6886 23.0975 50.8088 23.2676C51.62 23.3705 52.4131 23.585 53.1656 23.905C53.2867 23.9398 53.3842 24.0292 53.4293 24.1469C53.4592 24.2542 53.4738 24.3651 53.4733 24.4767V28.917C53.4797 29.022 53.4293 29.1226 53.3415 29.1807C53.2827 29.2099 53.2179 29.2251 53.1523 29.2251C53.0866 29.2251 53.0219 29.2099 52.9631 29.1807Z" fill="#31A8FF"/>
</g>
<defs>
<clipPath id="clip0_13_394">
<rect width="65.54" height="64" fill="white" transform="translate(0.540039)"/>
</clipPath>
</defs>
</svg>
