<svg width="64" height="64" viewBox="0 0 64 64" fill="none" xmlns="http://www.w3.org/2000/svg">
<g clip-path="url(#clip0_13_371)">
<mask id="mask0_13_371" style="mask-type:alpha" maskUnits="userSpaceOnUse" x="-1" y="0" width="65" height="64">
<path fill-rule="evenodd" clip-rule="evenodd" d="M45.3834 63.563C45.8927 63.7616 46.4374 63.8532 46.9836 63.8322C47.5298 63.8112 48.0659 63.6781 48.5584 63.441L61.7349 57.1005C62.4135 56.7738 62.9861 56.2623 63.3868 55.6246C63.7875 54.9869 64 54.2491 63.9999 53.496V10.5045C64.0001 9.75131 63.7876 9.01338 63.3869 8.37562C62.9862 7.73787 62.4136 7.2262 61.7349 6.8995L48.5584 0.560002C47.8139 0.201755 46.9764 0.0838036 46.1618 0.222471C45.3473 0.361139 44.596 0.749569 44.0119 1.334L18.7869 24.347L7.79994 16.0065C7.30431 15.6302 6.69258 15.4393 6.07089 15.4668C5.4492 15.4944 4.85679 15.7388 4.39644 16.1575L0.872435 19.363C0.597809 19.6128 0.378342 19.9171 0.228072 20.2566C0.0778023 20.596 3.90036e-05 20.9631 -0.000243369 21.3343C-0.000525741 21.7056 0.0766791 22.0728 0.226432 22.4124C0.376185 22.7521 0.59519 23.0568 0.869435 23.307L10.3979 32L0.869935 40.6935C0.595839 40.9437 0.376966 41.2484 0.227306 41.588C0.0776457 41.9277 0.000490992 42.2948 0.000773335 42.6659C0.00105568 43.0371 0.0787688 43.4041 0.228946 43.7435C0.379122 44.0829 0.598459 44.3872 0.872935 44.637L4.39693 47.8425C4.85718 48.2614 5.44958 48.5059 6.0713 48.5336C6.69301 48.5612 7.30479 48.3703 7.80044 47.994L18.7874 39.654L44.0124 62.6665C44.4025 63.0572 44.869 63.3625 45.3834 63.563ZM48.0094 17.4715L28.8699 32L48.0099 46.529L48.0094 17.4715Z" fill="white"/>
</mask>
<g mask="url(#mask0_13_371)">
<path d="M61.7353 6.91L48.5483 0.559996C47.8035 0.201511 46.9656 0.0834317 46.1507 0.222101C45.3358 0.36077 44.5842 0.749329 43.9998 1.334L0.830827 40.6935C0.556526 40.9436 0.337468 41.2482 0.187675 41.5879C0.0378827 41.9275 -0.0393441 42.2947 -0.0390617 42.6659C-0.0387793 43.0371 0.0390061 43.4042 0.189315 43.7436C0.339625 44.083 0.559146 44.3873 0.833827 44.637L4.35983 47.8425C4.82049 48.2614 5.4132 48.5058 6.03521 48.5335C6.65721 48.5612 7.26929 48.3703 7.76533 47.994L59.7508 8.5565C61.4948 7.2335 63.9998 8.4775 63.9998 10.6665V10.5135C63.9998 9.76054 63.7873 9.02289 63.3867 8.38534C62.9861 7.74779 62.4137 7.23674 61.7353 6.91Z" fill="#0065A9"/>
<g filter="url(#filter0_d_13_371)">
<path d="M61.7353 57.0905L48.5483 63.4395C47.8036 63.7981 46.9658 63.9163 46.1509 63.7779C45.336 63.6394 44.5843 63.251 43.9998 62.6665L0.830827 23.3065C0.556526 23.0564 0.337468 22.7518 0.187675 22.4121C0.0378827 22.0725 -0.0393441 21.7053 -0.0390617 21.3341C-0.0387793 20.9629 0.0390061 20.5958 0.189315 20.2564C0.339625 19.917 0.559146 19.6127 0.833827 19.363L4.35983 16.1575C4.82049 15.7386 5.4132 15.4942 6.03521 15.4665C6.65721 15.4388 7.26929 15.6297 7.76533 16.006L59.7508 55.443C61.4948 56.7665 63.9998 55.5225 63.9998 53.3335V53.4865C63.9998 54.2394 63.7873 54.9771 63.3867 55.6147C62.9861 56.2522 62.4137 56.7638 61.7353 57.0905Z" fill="#007ACC"/>
</g>
<g filter="url(#filter1_d_13_371)">
<path d="M48.5488 63.441C47.8037 63.7992 46.9658 63.9171 46.1509 63.7784C45.3359 63.6396 44.5842 63.2511 43.9998 62.6665C45.4758 64.1425 47.9998 63.097 47.9998 61.0095V2.99C47.9998 0.902499 45.4758 -0.143001 43.9998 1.3335C44.5842 0.7489 45.3359 0.360358 46.1509 0.221608C46.9658 0.0828587 47.8037 0.200757 48.5488 0.558999L61.7333 6.9C62.4122 7.22648 62.9851 7.73806 63.3861 8.37583C63.7871 9.0136 63.9998 9.75165 63.9998 10.505V53.496C63.9998 54.2493 63.7871 54.9874 63.3861 55.6252C62.9851 56.2629 62.4122 56.7745 61.7333 57.101L48.5488 63.441Z" fill="#1F9CF0"/>
</g>
<path opacity="0.25" fill-rule="evenodd" clip-rule="evenodd" d="M45.3449 63.563C45.8541 63.7615 46.3987 63.8531 46.9448 63.8321C47.4909 63.8111 48.0269 63.678 48.5194 63.441L61.6959 57.1005C62.3745 56.7738 62.9471 56.2621 63.3478 55.6244C63.7485 54.9866 63.961 54.2487 63.9609 53.4955V10.5045C63.961 9.75131 63.7485 9.01338 63.3478 8.37562C62.9471 7.73787 62.3745 7.2262 61.6959 6.8995L48.5194 0.560002C47.7748 0.201755 46.9373 0.0838036 46.1228 0.222471C45.3082 0.361139 44.5569 0.749569 43.9729 1.334L18.7479 24.347L7.76087 16.007C7.26525 15.6307 6.65352 15.4398 6.03183 15.4673C5.41014 15.4949 4.81773 15.7393 4.35737 16.158L0.833374 19.3635C0.558817 19.6133 0.339411 19.9177 0.189185 20.2571C0.0389599 20.5966 -0.0387794 20.9636 -0.0390617 21.3348C-0.0393441 21.706 0.0378367 22.0732 0.187546 22.4129C0.337255 22.7526 0.556197 23.0573 0.830374 23.3075L10.3589 32L0.830874 40.693C0.556629 40.9432 0.337625 41.2479 0.187871 41.5876C0.0381183 41.9272 -0.0390865 42.2944 -0.0388041 42.6657C-0.0385218 43.0369 0.0392416 43.404 0.189511 43.7434C0.339781 44.0829 0.559249 44.3872 0.833874 44.637L4.35787 47.8425C4.81817 48.2613 5.41055 48.5058 6.03224 48.5334C6.65393 48.5611 7.26569 48.3703 7.76137 47.994L18.7489 39.6535L43.9739 62.6665C44.3638 63.0572 44.8307 63.3625 45.3449 63.563ZM47.9709 17.471L28.8309 32L47.9709 46.5285V17.471Z" fill="url(#paint0_linear_13_371)"/>
</g>
</g>
<defs>
<filter id="filter0_d_13_371" x="-4.20606" y="11.2969" width="72.3728" height="56.7044" filterUnits="userSpaceOnUse" color-interpolation-filters="sRGB">
<feFlood flood-opacity="0" result="BackgroundImageFix"/>
<feColorMatrix in="SourceAlpha" type="matrix" values="0 0 0 0 0 0 0 0 0 0 0 0 0 0 0 0 0 0 127 0" result="hardAlpha"/>
<feOffset/>
<feGaussianBlur stdDeviation="2.0835"/>
<feColorMatrix type="matrix" values="0 0 0 0 0 0 0 0 0 0 0 0 0 0 0 0 0 0 0.25 0"/>
<feBlend mode="overlay" in2="BackgroundImageFix" result="effect1_dropShadow_13_371"/>
<feBlend mode="normal" in="SourceGraphic" in2="effect1_dropShadow_13_371" result="shape"/>
</filter>
<filter id="filter1_d_13_371" x="39.8328" y="-4.00198" width="28.334" height="72.004" filterUnits="userSpaceOnUse" color-interpolation-filters="sRGB">
<feFlood flood-opacity="0" result="BackgroundImageFix"/>
<feColorMatrix in="SourceAlpha" type="matrix" values="0 0 0 0 0 0 0 0 0 0 0 0 0 0 0 0 0 0 127 0" result="hardAlpha"/>
<feOffset/>
<feGaussianBlur stdDeviation="2.0835"/>
<feColorMatrix type="matrix" values="0 0 0 0 0 0 0 0 0 0 0 0 0 0 0 0 0 0 0.25 0"/>
<feBlend mode="overlay" in2="BackgroundImageFix" result="effect1_dropShadow_13_371"/>
<feBlend mode="normal" in="SourceGraphic" in2="effect1_dropShadow_13_371" result="shape"/>
</filter>
<linearGradient id="paint0_linear_13_371" x1="31.9609" y1="0.165002" x2="31.9609" y2="63.835" gradientUnits="userSpaceOnUse">
<stop stop-color="white"/>
<stop offset="1" stop-color="white" stop-opacity="0"/>
</linearGradient>
<clipPath id="clip0_13_371">
<rect width="64" height="64" fill="white"/>
</clipPath>
</defs>
</svg>
