<?xml version="1.0" standalone="no"?>
<!DOCTYPE svg PUBLIC "-//W3C//DTD SVG 20010904//EN"
 "http://www.w3.org/TR/2001/REC-SVG-20010904/DTD/svg10.dtd">
<svg version="1.0" xmlns="http://www.w3.org/2000/svg"
 width="200.000000pt" height="200.000000pt" viewBox="0 0 200.000000 200.000000"
 preserveAspectRatio="xMidYMid meet">
<metadata>
Created by potrace 1.14, written by Peter Selinger 2001-2017
</metadata>
<g transform="translate(0.000000,200.000000) scale(0.100000,-0.100000)"
fill="#000000" stroke="none">
<path d="M0 1716 l0 -283 133 -12 c72 -7 192 -20 266 -30 l133 -17 -5 33 c-3
18 -1 35 4 38 5 4 9 24 9 45 0 22 9 57 21 79 12 23 18 48 15 59 -4 12 -1 22 8
25 18 7 38 -16 31 -35 -8 -21 22 -45 37 -30 21 21 48 13 85 -23 20 -19 43 -35
51 -35 8 0 30 -11 48 -25 18 -14 37 -25 43 -25 6 0 11 -5 11 -10 0 -7 6 -7 20
0 16 8 22 7 32 -10 7 -11 23 -20 35 -20 12 0 23 -3 25 -7 4 -10 84 -53 97 -53
6 0 34 -14 62 -31 43 -25 61 -30 93 -26 76 10 99 20 149 68 46 44 52 47 67 34
19 -17 42 -19 56 -5 5 5 35 12 67 16 56 7 57 6 57 -19 0 -22 6 -27 33 -32 23
-5 39 -16 52 -38 22 -37 24 -60 14 -147 -5 -39 -4 -71 3 -83 17 -32 -6 -43
-44 -20 -26 16 -32 25 -30 46 2 22 -1 27 -18 27 -17 0 -20 -4 -15 -20 4 -12 1
-28 -6 -36 -6 -8 -10 -16 -8 -17 2 -2 45 -18 94 -37 50 -18 123 -48 164 -66
40 -19 77 -31 82 -28 5 3 9 0 9 -5 0 -6 5 -11 10 -11 7 0 10 182 10 525 l0
525 -1000 0 -1000 0 0 -284z m1497 -168 c-3 -8 -6 -5 -6 6 -1 11 2 17 5 13 3
-3 4 -12 1 -19z m394 -61 c-10 -9 -11 -8 -5 6 3 10 9 15 12 12 3 -3 0 -11 -7
-18z m-194 -9 c-3 -8 -6 -5 -6 6 -1 11 2 17 5 13 3 -3 4 -12 1 -19z m13 -28
c0 -5 -5 -10 -11 -10 -5 0 -7 5 -4 10 3 6 8 10 11 10 2 0 4 -4 4 -10z"/>
<path d="M1665 1291 c-6 -11 33 -26 43 -16 4 3 0 10 -8 15 -19 12 -27 12 -35
1z"/>
<path d="M624 1262 c11 -18 -24 -44 -58 -44 -20 0 -36 -4 -36 -9 0 -5 -6 -9
-14 -9 -7 0 -16 -11 -18 -25 -4 -19 -1 -25 13 -25 10 0 21 5 24 10 3 6 17 7
30 4 16 -4 26 0 32 11 6 9 22 18 36 18 28 2 32 13 21 55 -4 12 -13 22 -21 22
-8 0 -12 -3 -9 -8z"/>
<path d="M746 1049 c-15 -9 -16 -13 -5 -21 10 -7 8 -8 -8 -3 -17 5 -25 0 -37
-24 -20 -38 -20 -55 -1 -71 12 -10 26 -9 70 4 58 19 74 40 55 76 -6 11 -9 24
-6 29 3 5 -4 11 -17 15 -28 7 -29 7 -51 -5z"/>
<path d="M888 1043 c7 -3 16 -2 19 1 4 3 -2 6 -13 5 -11 0 -14 -3 -6 -6z"/>
<path d="M1112 994 c1 -28 -20 -74 -37 -80 -8 -4 -15 -10 -15 -15 0 -15 32
-10 45 8 11 15 15 15 49 -5 40 -24 76 -17 76 14 0 10 8 14 22 12 15 -2 24 3
26 15 2 10 -3 17 -12 17 -9 0 -16 8 -16 20 0 17 -7 20 -39 20 -21 0 -52 3 -69
6 -26 5 -31 3 -30 -12z m73 -24 c-3 -5 -11 -10 -16 -10 -6 0 -7 5 -4 10 3 6
11 10 16 10 6 0 7 -4 4 -10z m-35 -10 c0 -5 -4 -10 -10 -10 -5 0 -10 5 -10 10
0 6 5 10 10 10 6 0 10 -4 10 -10z m70 0 c0 -5 -4 -10 -10 -10 -5 0 -10 5 -10
10 0 6 5 10 10 10 6 0 10 -4 10 -10z"/>
<path d="M907 763 c-45 -23 -50 -23 -79 -8 -17 8 -33 14 -34 12 -2 -2 -4 -23
-6 -47 -3 -41 -1 -45 27 -54 17 -6 32 -13 35 -16 12 -13 60 -40 71 -40 6 0 9
7 5 15 -6 18 22 35 59 35 22 0 25 4 23 31 -1 16 -8 35 -15 41 -7 6 -10 14 -7
20 6 9 -14 39 -25 37 -3 -1 -28 -13 -54 -26z"/>
<path d="M0 37 c0 -35 2 -37 32 -37 l32 0 -30 32 c-16 18 -30 35 -31 37 -2 2
-3 -12 -3 -32z"/>
</g>
</svg>
